<?xml version="1.0"?>
<svg version="1.1" xmlns="http://www.w3.org/2000/svg" width="800" height="80" style=""><path fill="#c7327a" d="M53.1,71.44c0,0.6-0.3,0.96-1.08,0.96l-5.34,0c-1.26,0-1.68-0.48-2.04-1.44l-3.12-8.82l-15.18,0l-3.12,9c-0.24,0.78-0.66,1.26-1.62,1.26l-5.34,0c-0.6,0-0.84-0.3-0.84-0.78c0-0.18,0-0.42,0.12-0.66l14.64-38.88c0.3-0.72,0.72-1.2,1.62-1.2l4.8,0c0.9,0,1.44,0.42,1.68,1.08l14.7,38.7c0.12,0.3,0.12,0.54,0.12,0.78z M39.48,56.32l-4.26-12.66c-0.54-1.68-0.9-2.94-1.2-3.9l-0.12,0c-0.3,1.02-0.66,2.28-1.26,3.96l-4.26,12.6l11.1,0z M99.51,44.08c0,0.18,0,0.3-0.06,0.48l-8.04,26.4c-0.3,0.9-0.78,1.44-1.86,1.44l-4.08,0c-1.08,0-1.56-0.54-1.86-1.5l-4.98-17.1l-0.12,0l-4.92,17.22c-0.3,0.96-0.84,1.38-1.92,1.38l-4.02,0c-0.96,0-1.62-0.6-1.86-1.44l-7.86-26.4c-0.06-0.18-0.06-0.36-0.06-0.48c0-0.54,0.42-0.78,1.2-0.78l4.92,0c1.14,0,1.5,0.42,1.68,1.14l4.32,18.96l0.06,0l5.58-18.9c0.24-0.9,0.84-1.2,1.62-1.2l3.36,0c0.9,0,1.44,0.3,1.62,1.02l5.46,19.2l0.06,0l4.5-18.9c0.18-0.84,0.66-1.32,1.74-1.32l4.62,0c0.72,0,0.9,0.36,0.9,0.78z M133.08,57.76c0,1.44-0.48,1.74-1.98,1.74l-17.58,0c0.48,4.62,3.84,7.8,8.58,7.8c2.52,0,5.16-0.6,7.38-1.44c0.24-0.06,0.42-0.18,0.66-0.18c0.42,0,0.72,0.24,0.84,0.72l0.84,3.06c0.06,0.3,0.12,0.54,0.12,0.72c0,0.42-0.24,0.72-0.96,1.02c-2.94,1.32-6.96,1.92-10.08,1.92c-9.42,0-15-6-15-15.36c0-9,5.94-15.24,14.88-15.24c3.66,0,6.66,1.38,8.76,3.6c2.76,2.88,3.54,6.66,3.54,10.74l0,0.9z M125.94,54.76l0-0.66c-0.12-3.12-1.92-6-5.58-6c-3.9,0-6.24,3.12-6.72,6.66l12.3,0z M161.49,63.82c0,6.3-5.46,9.3-11.58,9.3c-3.12,0-6.54-0.9-9.24-2.1c-0.54-0.24-0.72-0.6-0.72-0.96c0-0.18,0.06-0.36,0.12-0.54l0.96-3.06c0.18-0.6,0.48-0.84,0.84-0.84c0.18,0,0.36,0,0.66,0.12c2.64,1.08,5.46,1.86,7.56,1.86c2.64,0,4.44-1.2,4.44-3.18c0-1.68-1.14-2.58-3.6-3.54l-4.74-1.8c-3.42-1.26-6.18-3.9-6.18-7.98c0-5.88,5.52-8.58,10.86-8.58c2.88,0,5.7,0.48,8.7,1.8c0.48,0.24,0.72,0.48,0.72,0.84c0,0.18-0.06,0.36-0.12,0.6l-1.02,3.24c-0.12,0.42-0.42,0.66-0.84,0.66c-0.18,0-0.42-0.06-0.6-0.12c-1.98-0.78-4.56-1.44-6.48-1.44c-2.52,0-3.78,1.38-3.78,2.76c0,1.32,0.66,2.16,2.94,3.06l5.4,2.22c3.18,1.32,5.7,3.78,5.7,7.68z M197.52,57.82c0,8.64-5.28,15.3-14.64,15.3c-9.78,0-14.28-6.6-14.28-15.36c0-8.64,5.28-15.24,14.64-15.24c9.78,0,14.28,6.48,14.28,15.3z M190.02,57.82c0-4.92-1.56-9.6-6.84-9.6c-5.34,0-7.08,4.62-7.08,9.42c0,4.92,1.5,9.78,6.84,9.78c5.28,0,7.08-4.68,7.08-9.6z M250.35,70.9c0,1.08-0.42,1.5-1.44,1.5l-4.2,0c-1.08,0-1.56-0.42-1.56-1.5l0-16.44c0-3.24-0.84-5.7-4.5-5.7c-2.28,0-4.92,1.2-6.78,2.7c0.12,0.54,0.24,8.58,0.24,9.42l0,10.02c0,1.08-0.42,1.5-1.44,1.5l-3.96,0c-1.08,0-1.56-0.42-1.56-1.5l0-16.44c0-3.18-0.66-5.7-4.32-5.7c-2.34,0-4.74,1.32-6.66,3l0,19.14c0,1.08-0.48,1.5-1.5,1.5l-4.2,0c-1.08,0-1.56-0.42-1.56-1.5l0-26.22c0-0.96,0.54-1.38,1.44-1.38l3.9,0c0.9,0,1.44,0.3,1.5,1.14l0.06,1.5c2.46-2.16,5.7-3.42,8.82-3.42c3.66,0,6.24,1.62,7.62,3.9c2.7-2.58,6.6-3.9,10.26-3.9c4.38,0,7.14,2.16,8.4,4.5c1.14,2.22,1.44,4.86,1.44,8.7l0,15.18z M286.92,57.76c0,1.44-0.48,1.74-1.98,1.74l-17.58,0c0.48,4.62,3.84,7.8,8.58,7.8c2.52,0,5.16-0.6,7.38-1.44c0.24-0.06,0.42-0.18,0.66-0.18c0.42,0,0.72,0.24,0.84,0.72l0.84,3.06c0.06,0.3,0.12,0.54,0.12,0.72c0,0.42-0.24,0.72-0.96,1.02c-2.94,1.32-6.96,1.92-10.08,1.92c-9.42,0-15-6-15-15.36c0-9,5.94-15.24,14.88-15.24c3.66,0,6.66,1.38,8.76,3.6c2.76,2.88,3.54,6.66,3.54,10.74l0,0.9z M279.78,54.76l0-0.66c-0.12-3.12-1.92-6-5.58-6c-3.9,0-6.24,3.12-6.72,6.66l12.3,0z M339.9,31.9l0,0.36l-0.42,3.6c-0.12,1.08-0.78,1.26-2.04,1.26l-15.06,0l0,10.86l13.86,0c1.14,0,1.5,0.48,1.5,1.32l0,3.42c0,1.02-0.42,1.44-1.44,1.44l-13.92,0l0,16.74c0,1.08-0.42,1.5-1.44,1.5l-4.68,0c-1.2,0-1.62-0.3-1.62-1.62l0-38.4c0-0.96,0.42-1.5,1.38-1.5l22.62,0c0.9,0,1.26,0.3,1.26,1.02z M365.97,43.54c0,0.18,0,0.36-0.06,0.54l-0.66,4.26c-0.06,0.54-0.36,0.78-0.84,0.78l-0.24,0c-0.48-0.12-1.08-0.18-1.62-0.18c-2.04,0-4.26,1.08-5.76,2.88l0,19.08c0,0.96-0.42,1.5-1.44,1.5l-4.38,0c-0.96,0-1.44-0.48-1.44-1.5l0-18.72l0-7.38c0-1.2,0.6-1.5,1.5-1.5l3.84,0c0.96,0,1.5,0.3,1.5,1.14l0.06,1.92c1.86-2.34,3.9-3.84,7.26-3.84c0.48,0,1.14,0.12,1.68,0.24c0.42,0.12,0.6,0.3,0.6,0.78z M399.24,57.76c0,1.44-0.48,1.74-1.98,1.74l-17.58,0c0.48,4.62,3.84,7.8,8.58,7.8c2.52,0,5.16-0.6,7.38-1.44c0.24-0.06,0.42-0.18,0.66-0.18c0.42,0,0.72,0.24,0.84,0.72l0.84,3.06c0.06,0.3,0.12,0.54,0.12,0.72c0,0.42-0.24,0.72-0.96,1.02c-2.94,1.32-6.96,1.92-10.08,1.92c-9.42,0-15-6-15-15.36c0-9,5.94-15.24,14.88-15.24c3.66,0,6.66,1.38,8.76,3.6c2.76,2.88,3.54,6.66,3.54,10.74l0,0.9z M392.1,54.76l0-0.66c-0.12-3.12-1.92-6-5.58-6c-3.9,0-6.24,3.12-6.72,6.66l12.3,0z M434.37,70.84c0,1.02-0.36,1.56-1.44,1.56l-4.32,0c-1.08,0-1.44-0.54-1.44-1.56l0-16.32c0-3.3-0.9-5.64-4.56-5.64c-2.34,0-5.22,1.26-7.08,2.88l0,19.14c0,1.02-0.42,1.5-1.44,1.5l-4.38,0c-0.9,0-1.44-0.48-1.44-1.44l0-26.16c0-0.96,0.42-1.5,1.5-1.5l3.9,0c0.84,0,1.38,0.24,1.44,1.14l0.06,1.56c2.76-2.22,6.24-3.48,9.72-3.48c6.72,0,9.48,4.2,9.48,10.74l0,17.58z M467.4,70.36c0,0.48-0.3,0.72-0.84,0.96c-2.88,1.32-5.52,1.8-8.7,1.8c-9.24,0-14.34-5.76-14.34-15c0-9.3,5.58-15.6,14.88-15.6c2.7,0,5.52,0.54,8.04,1.68c0.48,0.24,0.72,0.36,0.72,0.84c0,0.18-0.06,0.54-0.12,0.72l-0.78,3.18c-0.12,0.54-0.36,0.84-0.72,0.84c-0.18,0-0.42-0.12-0.66-0.24c-1.74-0.72-3.66-1.32-5.76-1.32c-5.16,0-8.1,3.66-8.1,9.54c0,5.76,2.64,9.72,7.8,9.72c2.58,0,4.2-0.48,6.3-1.32c0.18-0.06,0.42-0.18,0.6-0.18c0.36,0,0.6,0.3,0.72,0.72l0.78,2.64c0.12,0.42,0.18,0.78,0.18,1.02z M502.11,71.2c0,0.9-0.18,1.2-0.96,1.2l-5.28,0c-0.84,0-1.02-0.24-1.02-1.2l0-16.68c0-3.24-0.9-5.64-4.5-5.64c-2.34,0-5.34,1.26-7.2,2.88l0,19.44c0,0.9-0.24,1.2-1.14,1.2l-5.16,0c-0.72,0-0.96-0.3-0.96-1.08l0-39.66c0-1.08,0.48-1.38,1.32-1.5l4.14-0.54c0.24-0.06,0.54-0.06,0.78-0.06c0.66,0,1.02,0.3,1.02,1.14l0,15.06c2.52-2.1,6.3-3.24,9.48-3.24c6.72,0,9.48,4.26,9.48,10.74l0,17.94z M566.49,51.82c0,7.2-2.46,12.6-6.54,16.08c-3.72,3.12-8.94,4.5-14.88,4.5l-11.46,0c-1.2,0-1.74-0.3-1.74-1.68l0-38.04c0-1.26,0.36-1.8,1.86-1.8l8.64,0c6.9,0,11.58,0.78,15.54,3.06c5.4,3.12,8.58,9,8.58,17.88z M558.21,51.76c0-5.46-1.62-9.6-4.68-11.88c-2.46-1.8-5.64-2.46-9.48-2.46l-4.38,0l0,28.5l4.62,0c4.14,0,7.62-0.66,10.14-3.18c2.4-2.4,3.78-6,3.78-10.98z M601.86,57.76c0,1.44-0.48,1.74-1.98,1.74l-17.58,0c0.48,4.62,3.84,7.8,8.58,7.8c2.52,0,5.16-0.6,7.38-1.44c0.24-0.06,0.42-0.18,0.66-0.18c0.42,0,0.72,0.24,0.84,0.72l0.84,3.06c0.06,0.3,0.12,0.54,0.12,0.72c0,0.42-0.24,0.72-0.96,1.02c-2.94,1.32-6.96,1.92-10.08,1.92c-9.42,0-15-6-15-15.36c0-9,5.94-15.24,14.88-15.24c3.66,0,6.66,1.38,8.76,3.6c2.76,2.88,3.54,6.66,3.54,10.74l0,0.9z M594.72,54.76l0-0.66c-0.12-3.12-1.92-6-5.58-6c-3.9,0-6.24,3.12-6.72,6.66l12.3,0z M635.49,44.14c0,0.18-0.06,0.36-0.12,0.6l-10.5,26.52c-0.36,0.9-0.84,1.14-1.74,1.14l-3.12,0c-0.9,0-1.5-0.24-1.8-1.08l-10.32-26.76c-0.06-0.18-0.12-0.36-0.12-0.54c0-0.48,0.3-0.72,1.08-0.72l5.28,0c1.02,0,1.5,0.42,1.74,1.2l4.56,13.98c0.6,1.8,1.14,3.78,1.5,5.1l0.06,0c0.3-1.14,0.9-3.24,1.44-4.92l4.68-14.1c0.3-1.02,0.78-1.26,1.86-1.26l4.32,0c0.78,0,1.2,0.3,1.2,0.84z M678.96,51.4c0,13.56-7.74,21.72-18.48,21.72c-11.46,0-18.06-8.34-18.06-21.36c0-12.9,7.2-21.66,18.48-21.66c11.88,0,18.06,9,18.06,21.3z M670.68,51.58c0-10.08-3.54-14.94-9.96-14.94c-6,0-10.02,5.58-10.02,14.94c0,9.96,3.66,15,10.02,15c5.94,0,9.96-5.22,9.96-15z M716.37,57.46c0,4.56-1.38,8.7-3.9,11.64c-2.22,2.52-5.34,4.08-9.24,4.08c-2.76,0-5.52-1.02-7.26-2.82l0,13.44c0,1.2-0.54,1.56-1.56,1.56l-4.2,0c-0.96,0-1.44-0.54-1.44-1.56l0-39.12c0-1.02,0.48-1.38,1.44-1.38l3.6,0c1.02,0,1.56,0.24,1.62,1.14l0.06,1.62c1.74-1.98,5.16-3.48,8.4-3.48c3.96,0,6.72,1.5,8.7,3.66c2.58,2.82,3.78,7.02,3.78,11.22z M708.81,57.82c0-2.82-0.54-5.28-1.74-6.96c-1.14-1.62-2.82-2.46-4.92-2.46c-2.22,0-4.98,1.44-6.18,2.94l0,13.08c1.2,1.62,3.6,2.94,5.88,2.94c2.1,0,3.78-0.96,4.8-2.22c1.5-1.86,2.16-4.38,2.16-7.32z M745.14,63.82c0,6.3-5.46,9.3-11.58,9.3c-3.12,0-6.54-0.9-9.24-2.1c-0.54-0.24-0.72-0.6-0.72-0.96c0-0.18,0.06-0.36,0.12-0.54l0.96-3.06c0.18-0.6,0.48-0.84,0.84-0.84c0.18,0,0.36,0,0.66,0.12c2.64,1.08,5.46,1.86,7.56,1.86c2.64,0,4.44-1.2,4.44-3.18c0-1.68-1.14-2.58-3.6-3.54l-4.74-1.8c-3.42-1.26-6.18-3.9-6.18-7.98c0-5.88,5.52-8.58,10.86-8.58c2.88,0,5.7,0.48,8.7,1.8c0.48,0.24,0.72,0.48,0.72,0.84c0,0.18-0.06,0.36-0.12,0.6l-1.02,3.24c-0.12,0.42-0.42,0.66-0.84,0.66c-0.18,0-0.42-0.06-0.6-0.12c-1.98-0.78-4.56-1.44-6.48-1.44c-2.52,0-3.78,1.38-3.78,2.76c0,1.32,0.66,2.16,2.94,3.06l5.4,2.22c3.18,1.32,5.7,3.78,5.7,7.68z"/><path fill="#" d=""/></svg>
